<svg width="284" height="280" viewBox="0 0 284 280" fill="none" xmlns="http://www.w3.org/2000/svg">
<path fill-rule="evenodd" clip-rule="evenodd" d="M135 67.5C135 104.779 104.779 135 67.5 135C63.0069 135 58.6162 134.561 54.3687 133.724C57.9369 89.021 87.0683 51.524 127.139 35.8566C132.157 45.2947 135 56.0653 135 67.5ZM130 251.218C142.178 255.608 155.31 258 169 258C232.513 258 284 206.513 284 143C284 79.4873 232.513 28 169 28C154.23 28 140.111 30.7843 127.139 35.8566C115.797 14.5248 93.3445 0 67.5 0C30.2208 0 0 30.2208 0 67.5C0 100.286 23.375 127.613 54.3687 133.724C54.1245 136.783 54 139.877 54 143C54 145.35 54.0705 147.684 54.2095 150H0V280H130V251.218ZM130 251.218C87.7736 235.998 57.0175 196.766 54.2095 150H130V251.218Z" fill="#EA4125"/>
</svg>
